<svg width="350" height="175" viewBox="0 0 350 175" fill="none" xmlns="http://www.w3.org/2000/svg">
<path d="M321.712 117.454L335.071 125.166L321.712 132.878L321.712 117.454Z" fill="#080808"/>
<path d="M239.048 44.9655L246.277 49.1389L239.048 53.3123L239.048 44.9655Z" fill="#0057F4"/>
<path d="M326.755 159.578L334.924 164.294L326.755 169.011L326.755 159.578Z" fill="#0057F4"/>
<path d="M275.265 27.2797L265.099 25.8505L271.42 17.7613L275.265 27.2797Z" fill="#080808"/>
<path d="M13.4963 126.983L8.41511 126.268L11.5744 122.225L13.4963 126.983Z" fill="#77A7FF"/>
<path d="M316.048 79.0453L312.017 82.2197L311.284 77.1413L316.048 79.0453Z" fill="#0057F4"/>
<path d="M193.263 35.5581L188.009 34.8195L191.275 30.6391L193.263 35.5581Z" fill="#0057F4"/>
<path d="M4.83034 44.2096L1.04964 43.678L3.40031 40.6696L4.83034 44.2096Z" fill="#77A7FF"/>
<path d="M348.643 53.2564L344.862 52.7249L347.213 49.7165L348.643 53.2564Z" fill="#77A7FF"/>
<path d="M10.6194 173.174L6.8387 172.643L9.18938 169.634L10.6194 173.174Z" fill="#080808"/>
<path d="M234.244 134.788L230.464 134.256L232.814 131.248L234.244 134.788Z" fill="#77A7FF"/>
<path d="M228.901 13.3103L228.942 5.30793L235.852 9.34421L228.901 13.3103Z" fill="#77A7FF"/>
<path d="M-7.33832 65.4918L0.830679 70.2082L-7.33832 74.9246L-7.33832 65.4918Z" fill="#0057F4"/>
<path d="M276.251 92.2824L280.89 92.216L278.628 96.2667L276.251 92.2824Z" fill="#0057F4"/>
<path d="M135.728 10.8116L126.547 9.52086L132.255 2.21527L135.728 10.8116Z" fill="#77A7FF"/>
</svg>
