<svg width="1257" height="486" viewBox="0 0 1257 486" fill="none" xmlns="http://www.w3.org/2000/svg">
<path d="M252.226 38.7115L243.316 76.6505L214.915 49.9652L252.226 38.7115Z" fill="#080808"/>
<path d="M1006.81 327.859L1040.56 347.345L1006.81 366.831L1006.81 327.859Z" fill="#080808"/>
<path d="M560.357 431.755L596.795 452.792L560.357 473.829L560.357 431.755Z" fill="#0057F4"/>
<path d="M12.2364 118.489L32.8757 130.405L12.2364 142.322L12.2364 118.489Z" fill="#0057F4"/>
<path d="M1198.24 364.489L1218.88 376.405L1198.24 388.322L1198.24 364.489Z" fill="#0057F4"/>
<path d="M237.416 404.591L203.687 399.849L224.658 373.01L237.416 404.591Z" fill="#77A7FF"/>
<path d="M881.67 468.416L856.353 464.857L872.094 444.711L881.67 468.416Z" fill="#77A7FF"/>
<path d="M1068.14 30.2392L1042.46 26.6282L1058.42 6.19047L1068.14 30.2392Z" fill="#080808"/>
<path d="M421.728 303.115L408.89 301.31L416.872 291.094L421.728 303.115Z" fill="#77A7FF"/>
<path d="M219.234 198.045L209.048 206.065L207.195 193.234L219.234 198.045Z" fill="#0057F4"/>
<path d="M1171.21 161.017L1161.02 169.038L1159.17 156.207L1171.21 161.017Z" fill="#0057F4"/>
<path d="M759.282 71.2366L746.009 69.3705L754.262 58.8086L759.282 71.2366Z" fill="#0057F4"/>
<path d="M693.524 374.246L683.972 372.903L689.911 365.302L693.524 374.246Z" fill="#080808"/>
<path d="M18.5242 381.855L8.97211 380.512L14.9112 372.911L18.5242 381.855Z" fill="#080808"/>
<path d="M435.524 88.8552L425.972 87.5122L431.911 79.9113L435.524 88.8552Z" fill="#77A7FF"/>
<path d="M1253.52 95.8552L1243.97 94.5122L1249.91 86.9113L1253.52 95.8552Z" fill="#77A7FF"/>
<path d="M399.524 398.855L389.972 397.512L395.911 389.911L399.524 398.855Z" fill="#080808"/>
<path d="M964.524 301.855L954.972 300.512L960.911 292.911L964.524 301.855Z" fill="#77A7FF"/>
<path d="M772.417 342.535L772.506 325.021L787.629 333.854L772.417 342.535Z" fill="#0057F4"/>
<path d="M917.702 171.655L917.804 151.437L935.262 161.635L917.702 171.655Z" fill="#77A7FF"/>
<path d="M96.397 316.655L96.4994 296.437L113.958 306.635L96.397 316.655Z" fill="#77A7FF"/>
</svg>
