<svg width="231" height="248" viewBox="0 0 231 248" fill="none" xmlns="http://www.w3.org/2000/svg">
<g clip-path="url(#clip0_4821_2987)">
<path d="M115 177.582L0 241L2.41007 110L115 177.582Z" fill="#0057F4" stroke="#080808"/>
<path d="M227.568 241L114 172.387L230 108L227.568 241Z" fill="#080808"/>
<mask id="mask0_4821_2987" style="mask-type:luminance" maskUnits="userSpaceOnUse" x="40" y="66" width="153" height="118">
<path d="M192.671 66.8516C192.671 82.1396 190.7 97.2776 186.87 111.402C183.04 125.526 177.426 138.359 170.349 149.169C163.272 159.979 154.87 168.554 145.623 174.404C136.376 180.254 126.465 183.266 116.457 183.266C106.448 183.266 96.5382 180.254 87.2912 174.404C78.0442 168.554 69.6422 159.979 62.5652 149.169C55.4882 138.359 49.8742 125.526 46.0442 111.402C42.2142 97.2776 40.2422 82.1396 40.2422 66.8516H116.457H192.671Z" fill="white"/>
</mask>
<g mask="url(#mask0_4821_2987)">
<path d="M192.671 66.8516C192.671 82.1396 190.7 97.2776 186.87 111.402C183.04 125.526 177.426 138.359 170.349 149.169C163.272 159.979 154.87 168.554 145.623 174.404C136.376 180.254 126.465 183.266 116.457 183.266C106.448 183.266 96.5382 180.254 87.2912 174.404C78.0442 168.554 69.6422 159.979 62.5652 149.169C55.4882 138.359 49.8742 125.526 46.0442 111.402C42.2142 97.2776 40.2422 82.1396 40.2422 66.8516H116.457H192.671Z" fill="white" stroke="#080808" stroke-width="4"/>
</g>
<path d="M115.14 145.156C117.81 145.156 119.975 142.971 119.975 140.277C119.975 137.583 117.81 135.398 115.14 135.398C112.469 135.398 110.305 137.583 110.305 140.277C110.305 142.971 112.469 145.156 115.14 145.156Z" fill="#080808" stroke="#080808" stroke-width="2"/>
<path d="M105.758 136.289L71.7907 118.882" stroke="#080808" stroke-width="2"/>
<path d="M127.648 135.609L161.305 118.362" stroke="#080808" stroke-width="2"/>
<path d="M104.148 142.375L66.0667 141.273" stroke="#080808" stroke-width="2"/>
<path d="M129.25 141.656L166.983 140.565" stroke="#080808" stroke-width="2"/>
<path d="M107.445 148.922L70.4572 158.129" stroke="#080808" stroke-width="2"/>
<path d="M125.945 148.137L162.595 157.26" stroke="#080808" stroke-width="2"/>
<path d="M100.624 101.438C87.5407 95.8086 80.2058 95.4236 67.4688 101.438" stroke="#080808" stroke-width="2"/>
<path d="M165.616 101.477C152.533 95.8477 145.199 95.4627 132.461 101.477" stroke="#080808" stroke-width="2"/>
<path d="M83.7035 109.91C84.6573 109.91 85.4305 107.258 85.4305 103.986C85.4305 100.715 84.6573 98.0625 83.7035 98.0625C82.7497 98.0625 81.9766 100.715 81.9766 103.986C81.9766 107.258 82.7497 109.91 83.7035 109.91Z" fill="#080808" stroke="#080808" stroke-width="2"/>
<path d="M148.672 109.832C149.626 109.832 150.399 107.18 150.399 103.908C150.399 100.637 149.626 97.9844 148.672 97.9844C147.719 97.9844 146.945 100.637 146.945 103.908C146.945 107.18 147.719 109.832 148.672 109.832Z" fill="#080808" stroke="#080808" stroke-width="2"/>
<path d="M115.824 152.133C115.712 156.21 113.116 168.21 98.5547 163.666" stroke="#080808" stroke-width="2" stroke-linecap="round"/>
<path d="M115.82 152.141C115.933 156.218 118.529 168.218 133.09 163.674" stroke="#080808" stroke-width="2" stroke-linecap="round"/>
<path d="M81.9849 137.497C99.5332 137.497 113.759 123.144 113.759 105.438C113.759 87.7323 99.5332 73.3789 81.9849 73.3789C64.4366 73.3789 50.2109 87.7323 50.2109 105.438C50.2109 123.144 64.4366 137.497 81.9849 137.497Z" fill="white" fill-opacity="0.15" stroke="#080808" stroke-width="2"/>
<path d="M151.055 137.497C168.604 137.497 182.829 123.144 182.829 105.438C182.829 87.7323 168.604 73.3789 151.055 73.3789C133.507 73.3789 119.281 87.7323 119.281 105.438C119.281 123.144 133.507 137.497 151.055 137.497Z" fill="white" fill-opacity="0.15" stroke="#080808" stroke-width="2"/>
<path d="M113.742 107.215H119.268" stroke="#080808" stroke-width="2"/>
<path d="M115.084 65.9081L41.9922 65.8481L78.3072 3.42969L115.084 65.9081Z" fill="white" stroke="#080808" stroke-width="2"/>
<path d="M154.83 132.642L114.914 67.2422H192.651L154.83 132.642Z" fill="#080808"/>
<path d="M43.8059 64.7195L113.36 64.5625L114.325 66.1765L116.067 69.1405L42.2419 68.6805L42.2109 66.8515L43.8059 64.7195Z" fill="white"/>
<path d="M42.2344 67.0664L103.98 67.6124V69.0274H42.2674L42.2344 67.0664Z" fill="white"/>
<path d="M78.5557 34.1875L95.0567 62.72H62.0547L78.5557 34.1875Z" fill="#080808"/>
<path d="M154.821 99.2908L138.32 70.7578H171.322L154.821 99.2908Z" fill="white"/>
</g>
<defs>
<clipPath id="clip0_4821_2987">
<rect width="231" height="248" fill="white"/>
</clipPath>
</defs>
</svg>
