<svg width="362" height="336" viewBox="0 0 362 336" fill="none" xmlns="http://www.w3.org/2000/svg">
<path d="M180.987 227.772L65.7808 291.32L68.1952 160.052L180.987 227.772Z" fill="#0057F4" stroke="#080808"/>
<path d="M293.93 298.267L179.652 229.655L296.376 165.269L293.93 298.267Z" fill="#080808"/>
<mask id="path-3-inside-1_4794_801" fill="white">
<path d="M257.992 116.853C257.992 132.141 256.02 147.279 252.19 161.403C248.36 175.527 242.746 188.36 235.669 199.17C228.592 209.98 220.19 218.555 210.943 224.405C201.696 230.255 191.786 233.267 181.777 233.267C171.768 233.267 161.858 230.255 152.611 224.405C143.364 218.555 134.962 209.98 127.885 199.17C120.808 188.36 115.194 175.527 111.364 161.403C107.534 147.279 105.562 132.141 105.563 116.853L181.777 116.853H257.992Z"/>
</mask>
<path d="M257.992 116.853C257.992 132.141 256.02 147.279 252.19 161.403C248.36 175.527 242.746 188.36 235.669 199.17C228.592 209.98 220.19 218.555 210.943 224.405C201.696 230.255 191.786 233.267 181.777 233.267C171.768 233.267 161.858 230.255 152.611 224.405C143.364 218.555 134.962 209.98 127.885 199.17C120.808 188.36 115.194 175.527 111.364 161.403C107.534 147.279 105.562 132.141 105.563 116.853L181.777 116.853H257.992Z" fill="white" stroke="#080808" stroke-width="4" mask="url(#path-3-inside-1_4794_801)"/>
<ellipse cx="180.46" cy="190.279" rx="4.83517" ry="4.87857" fill="#080808" stroke="#080808" stroke-width="2"/>
<line y1="-1" x2="38.1676" y2="-1" transform="matrix(-0.889946 -0.456067 0.449632 -0.893214 171.531 185.393)" stroke="#080808" stroke-width="2"/>
<line y1="-1" x2="37.8185" y2="-1" transform="matrix(0.889946 -0.456067 -0.449632 -0.893214 192.516 184.715)" stroke="#080808" stroke-width="2"/>
<line y1="-1" x2="38.0977" y2="-1" transform="matrix(-0.999582 -0.0289161 0.0284043 -0.999596 169.5 191.377)" stroke="#080808" stroke-width="2"/>
<line y1="-1" x2="37.7492" y2="-1" transform="matrix(0.999582 -0.0289161 -0.0284042 -0.999596 194.539 190.656)" stroke="#080808" stroke-width="2"/>
<line y1="-1" x2="38.1169" y2="-1" transform="matrix(-0.970385 0.241562 -0.237526 -0.971381 172.531 197.949)" stroke="#080808" stroke-width="2"/>
<line y1="-1" x2="37.7683" y2="-1" transform="matrix(0.970385 0.241562 0.237526 -0.971381 191.5 197.166)" stroke="#080808" stroke-width="2"/>
<path d="M165.945 151.436C152.861 145.807 145.527 145.422 132.789 151.436" stroke="#080808" stroke-width="2"/>
<path d="M230.937 151.477C217.853 145.848 210.519 145.463 197.781 151.477" stroke="#080808" stroke-width="2"/>
<ellipse cx="149.024" cy="153.988" rx="1.72697" ry="5.92398" fill="#080808" stroke="#080808" stroke-width="2"/>
<ellipse cx="213.993" cy="153.91" rx="1.72697" ry="5.92398" fill="#080808" stroke="#080808" stroke-width="2"/>
<path d="M181.145 202.131C181.032 206.208 178.436 218.208 163.875 213.664" stroke="#080808" stroke-width="2" stroke-linecap="round"/>
<path d="M181.144 202.139C181.257 206.216 183.853 218.216 198.414 213.672" stroke="#080808" stroke-width="2" stroke-linecap="round"/>
<ellipse cx="147.305" cy="155.438" rx="31.774" ry="32.0592" fill="white" fill-opacity="0.15" stroke="#080808" stroke-width="2"/>
<ellipse cx="216.376" cy="155.438" rx="31.774" ry="32.0592" fill="white" fill-opacity="0.15" stroke="#080808" stroke-width="2"/>
<line x1="179.062" y1="157.215" x2="184.588" y2="157.215" stroke="#080808" stroke-width="2"/>
<path d="M256.205 115.863L181.895 115.863L218.222 53.4219L256.205 115.863Z" fill="white" stroke="#080808" stroke-width="2"/>
<path d="M145.546 182.648L105.631 117.249L182.063 117.249L145.546 182.648Z" fill="#080808"/>
<path d="M185.15 112.297L253.883 113.961L255.741 116.838L255.985 118.895L181.039 119.026L182.718 116.054L185.15 112.297Z" fill="white"/>
<path d="M183.367 117.066L245.113 117.612V119.027H183.399L183.367 117.066Z" fill="white"/>
<path d="M219.686 84.1895L236.187 112.722H203.186L219.686 84.1895Z" fill="#080808"/>
<path d="M145.54 149.301L129.039 120.768L162.041 120.768L145.54 149.301Z" fill="white"/>
</svg>
