<svg width="261" height="421" viewBox="0 0 261 421" fill="none" xmlns="http://www.w3.org/2000/svg">
<g clip-path="url(#clip0_4821_3583)">
<path d="M65.8189 194.816L261.349 307.857L65.7109 420.705L65.8189 194.816Z" fill="#080808" stroke="#080808"/>
<path d="M195.787 419.117L0.257812 306.076L195.896 193.227L195.787 419.117Z" fill="#080808" stroke="#080808"/>
<mask id="mask0_4821_3583" style="mask-type:luminance" maskUnits="userSpaceOnUse" x="3" y="106" width="256" height="196">
<path d="M258.947 106.453C258.947 132.097 255.645 157.489 249.231 181.181C242.816 204.872 233.413 226.399 221.561 244.532C209.708 262.665 195.636 277.048 180.149 286.862C164.663 296.675 148.064 301.726 131.302 301.726C114.539 301.726 97.9399 296.675 82.4539 286.862C66.9669 277.048 52.896 262.665 41.0427 244.532C29.1897 226.399 19.7874 204.872 13.3727 181.181C6.95785 157.489 3.65615 132.096 3.65625 106.453H131.302H258.947Z" fill="white"/>
</mask>
<g mask="url(#mask0_4821_3583)">
<path d="M258.947 106.453C258.947 132.097 255.645 157.489 249.231 181.181C242.816 204.872 233.413 226.399 221.561 244.532C209.708 262.665 195.636 277.048 180.149 286.862C164.663 296.675 148.064 301.726 131.302 301.726C114.539 301.726 97.9399 296.675 82.4539 286.862C66.9669 277.048 52.896 262.665 41.0427 244.532C29.1897 226.399 19.7874 204.872 13.3727 181.181C6.95785 157.489 3.65615 132.096 3.65625 106.453H131.302H258.947Z" fill="white" stroke="#080808" stroke-width="6"/>
</g>
<path d="M129.114 237.8C133.586 237.8 137.212 234.136 137.212 229.617C137.212 225.097 133.586 221.434 129.114 221.434C124.641 221.434 121.016 225.097 121.016 229.617C121.016 234.136 124.641 237.8 129.114 237.8Z" fill="#080808" stroke="#080808" stroke-width="3"/>
<path d="M113.477 222.762L56.588 193.563" stroke="#080808" stroke-width="3"/>
<path d="M149.977 221.625L206.345 192.693" stroke="#080808" stroke-width="3"/>
<path d="M110.703 232.965L46.9233 231.117" stroke="#080808" stroke-width="3"/>
<path d="M152.734 231.75L215.931 229.919" stroke="#080808" stroke-width="3"/>
<path d="M116.188 243.945L54.2393 259.39" stroke="#080808" stroke-width="3"/>
<path d="M147.234 242.629L208.616 257.933" stroke="#080808" stroke-width="3"/>
<path d="M104.795 164.463C82.882 155.02 70.599 154.374 49.2656 164.463" stroke="#080808" stroke-width="3"/>
<path d="M213.646 164.533C191.734 155.09 179.45 154.445 158.117 164.533" stroke="#080808" stroke-width="3"/>
<path d="M76.4549 178.682C78.0523 178.682 79.3472 174.234 79.3472 168.746C79.3472 163.258 78.0523 158.809 76.4549 158.809C74.8575 158.809 73.5625 163.258 73.5625 168.746C73.5625 174.234 74.8575 178.682 76.4549 178.682Z" fill="#080808" stroke="#080808" stroke-width="3"/>
<path d="M185.267 178.55C186.865 178.55 188.16 174.101 188.16 168.613C188.16 163.125 186.865 158.676 185.267 158.676C183.67 158.676 182.375 163.125 182.375 168.613C182.375 174.101 183.67 178.55 185.267 178.55Z" fill="#080808" stroke="#080808" stroke-width="3"/>
<path d="M130.252 249.5C130.063 256.34 125.715 276.468 101.328 268.846" stroke="#080808" stroke-width="3" stroke-linecap="round"/>
<path d="M130.242 249.512C130.431 256.351 134.779 276.479 159.166 268.858" stroke="#080808" stroke-width="3" stroke-linecap="round"/>
<path d="M73.5827 224.951C102.973 224.951 126.798 200.875 126.798 171.175C126.798 141.475 102.973 117.398 73.5827 117.398C44.1926 117.398 20.3672 141.475 20.3672 171.175C20.3672 200.875 44.1926 224.951 73.5827 224.951Z" fill="white" fill-opacity="0.15" stroke="#080808" stroke-width="3"/>
<path d="M189.255 224.951C218.645 224.951 242.47 200.875 242.47 171.175C242.47 141.475 218.645 117.398 189.255 117.398C159.864 117.398 136.039 141.475 136.039 171.175C136.039 200.875 159.864 224.951 189.255 224.951Z" fill="white" fill-opacity="0.15" stroke="#080808" stroke-width="3"/>
<path d="M126.766 174.332H136.02" stroke="#080808" stroke-width="3"/>
<path d="M129.31 105.049L6.28125 104.947L67.405 -0.277344L129.31 105.049Z" fill="white" stroke="#080808" stroke-width="3"/>
<path d="M195.562 216.8L128.711 107.098H258.906L195.562 216.8Z" fill="#080808"/>
<path d="M9.25068 102.832L126.112 102.613L127.729 105.32L130.646 110.291L6.67188 109.466V106.452L9.25068 102.832Z" fill="white"/>
<path d="M7 106.812L110.413 107.729V110.102H7.0541L7 106.812Z" fill="white"/>
<path d="M67.8161 51.6641L95.4521 99.5251H40.1797L67.8161 51.6641Z" fill="#080808"/>
<path d="M195.558 160.869L167.922 113.008H223.194L195.558 160.869Z" fill="white"/>
</g>
<defs>
<clipPath id="clip0_4821_3583">
<rect width="261" height="421" fill="white"/>
</clipPath>
</defs>
</svg>
