<svg width="692" height="556" viewBox="0 0 692 556" fill="none" xmlns="http://www.w3.org/2000/svg">
<path d="M398.414 218.504H424.569" stroke="#080808" stroke-width="5"/>
<path d="M411.492 170.652V240.497C411.492 241.983 412.384 258.329 432 247.927" stroke="#080808" stroke-width="5"/>
<path d="M448.055 191.754C451.621 227.122 469.153 254.465 469.153 254.465C469.153 254.465 484.318 228.905 488.772 191.754" stroke="#080808" stroke-width="5"/>
<path d="M380.585 197.701C375.532 187.894 353.807 188.99 349.972 203.051C344.622 222.668 375.24 222.574 381.476 227.719C393.365 237.527 382.071 253.577 366.913 252.388C359.802 251.831 354.43 251.199 347 244.66" stroke="#080808" stroke-width="5"/>
<path d="M562.831 206.017C551.831 187.293 514.35 188.714 512.562 218.797C509.879 263.973 561.285 255.056 562.798 238.71C563.858 227.267 562.056 186.104 562.056 166.785" stroke="#080808" stroke-width="5"/>
<path d="M659.939 206.018C648.938 187.294 612.5 188.715 610.713 218.798C609.142 272.89 681.662 255.95 659.939 206.018Z" stroke="#080808" stroke-width="5"/>
<path d="M589.523 191.453V253.57" stroke="#080808" stroke-width="5"/>
<path d="M185.299 0L345.773 277.949H24.8254L185.299 0Z" fill="#0057F4"/>
<path d="M506.232 555.891L345.758 277.942L666.706 277.942L506.232 555.891Z" fill="#080808"/>
</svg>
